<svg width="24" height="40" viewBox="0 0 24 40" fill="none" xmlns="http://www.w3.org/2000/svg">
<path d="M9 11V29M13 16L17 20L13 24M7.8 11H16.2C17.8802 11 18.7202 11 19.362 11.327C19.9265 11.6146 20.3854 12.0735 20.673 12.638C21 13.2798 21 14.1198 21 15.8V24.2C21 25.8802 21 26.7202 20.673 27.362C20.3854 27.9265 19.9265 28.3854 19.362 28.673C18.7202 29 17.8802 29 16.2 29H7.8C6.11984 29 5.27976 29 4.63803 28.673C4.07354 28.3854 3.6146 27.9265 3.32698 27.362C3 26.7202 3 25.8802 3 24.2V15.8C3 14.1198 3 13.2798 3.32698 12.638C3.6146 12.0735 4.07354 11.6146 4.63803 11.327C5.27976 11 6.11984 11 7.8 11Z" stroke="#98A2B3" stroke-width="2" stroke-linecap="round" stroke-linejoin="round"/>
</svg>
