<svg width="122" height="33" viewBox="0 0 122 33" fill="none" xmlns="http://www.w3.org/2000/svg">
<g clip-path="url(#clip0_2_14)">
<path d="M15.5693 32.1697C24.168 32.1697 31.1386 25.1639 31.1386 16.5219C31.1386 7.8798 24.168 0.874023 15.5693 0.874023C6.97061 0.874023 0 7.8798 0 16.5219C0 25.1639 6.97061 32.1697 15.5693 32.1697Z" fill="#FFC300"/>
<path d="M27.3798 8.38672V10.5688H26.4183C25.6624 10.5728 24.9156 10.7348 24.2254 11.0446C23.5007 11.3611 22.8777 11.9775 22.3565 12.8938C21.8352 13.81 21.575 15.0824 21.5757 16.711V23.5086H18.9727V8.63508H21.449L21.3888 11.5048H21.5103C22.5707 9.42608 24.3202 8.38672 26.7589 8.38672H27.3798Z" fill="#212529"/>
<path d="M31.3794 12.9663H28.7732C28.7808 12.4371 28.8741 11.9126 29.0494 11.4136C29.2628 10.8189 29.6014 10.2775 30.042 9.82634C30.5197 9.31709 31.1887 8.89724 32.0491 8.56679C32.9095 8.23633 33.989 8.07215 35.2875 8.07424C39.1798 8.07424 41.1262 9.72755 41.1269 13.0342V20.0113C41.123 20.0984 41.1115 20.185 41.0927 20.2701C41.0746 20.35 41.0632 20.4314 41.0584 20.5132C41.0584 21.3195 41.3893 21.7227 42.051 21.7227C42.0707 21.7227 42.1486 21.7122 42.2857 21.6924C42.3733 21.6776 42.4617 21.6675 42.5504 21.6621V23.5113C42.4798 23.5113 42.2981 23.5217 42.0053 23.5416C41.7125 23.5614 41.5007 23.5729 41.3688 23.5729H41.0574C40.4862 23.5782 39.9248 23.4232 39.4366 23.1252C38.9465 22.8274 38.7015 22.2991 38.7015 21.5401C38.0093 22.5272 37.1509 23.1854 36.1265 23.5144C35.102 23.8435 34.2537 24.0077 33.5816 24.007C32.319 24.007 31.298 23.8087 30.5186 23.4122C29.7392 23.0156 29.1809 22.4904 28.8438 21.8364C28.5029 21.1574 28.3301 20.4056 28.3403 19.645C28.3403 18.4574 28.6621 17.535 29.3059 16.8775C29.9496 16.2201 30.7872 15.7554 31.8186 15.4834C32.8486 15.2162 34.1309 15.0092 35.6655 14.8625C36.1519 14.8487 36.6372 14.808 37.1191 14.7404C37.7192 14.6144 38.1017 14.4322 38.2664 14.1935C38.4312 13.9549 38.5132 13.4832 38.5125 12.7785C38.5125 10.9064 37.4167 9.9707 35.2252 9.97139C33.7107 9.97139 32.6807 10.2643 32.1352 10.85C31.5898 11.4358 31.3171 12.0588 31.3171 12.719C31.3223 12.7608 31.3324 12.8018 31.3472 12.8411C31.3634 12.8812 31.3742 12.9233 31.3794 12.9663ZM38.5135 15.8329C38.3474 16.0458 38.0594 16.2131 37.6497 16.3349C37.2916 16.4145 36.9261 16.4555 36.5594 16.457C35.9988 16.5265 35.3387 16.6139 34.5794 16.7189C33.9288 16.7976 33.2879 16.943 32.6669 17.153C32.1797 17.3185 31.7482 17.6174 31.4209 18.016C31.1053 18.4077 30.9474 18.9277 30.9474 19.5761C30.9391 19.9195 31.0021 20.2608 31.1325 20.5783C31.2628 20.8958 31.4576 21.1825 31.7044 21.42C32.209 21.9147 32.9385 22.162 33.8931 22.162C34.984 22.162 35.8752 21.9185 36.5667 21.4315C37.2365 20.9704 37.7556 20.3205 38.0587 19.5636C38.3607 18.8144 38.5152 18.0135 38.5135 17.2052V15.8329Z" fill="#212529"/>
<path d="M43.4141 8.63565H45.9278V10.6299C46.3279 9.95503 46.9467 9.35987 47.7843 8.84436C48.6218 8.32885 49.6466 8.07214 50.8587 8.07423C52.3815 8.07423 53.6514 8.42834 54.6682 9.13655C55.6865 9.84795 56.4669 10.8523 56.9068 12.0178C57.3865 13.229 57.6263 14.6061 57.6263 16.1491C57.6142 17.2832 57.4461 18.4101 57.1269 19.4978C56.7939 20.6805 56.1287 21.7272 55.1313 22.6378C54.1338 23.5485 52.7314 24.0042 50.9241 24.0049C50.0798 24.0131 49.2438 23.8372 48.4737 23.4894C47.724 23.1464 47.1281 22.7544 46.6857 22.3133C46.2434 21.8722 46.0226 21.53 46.0233 21.2865V28.8991H43.4141V8.63565ZM46.0192 16.0844C46.0067 17.1398 46.2036 18.187 46.5985 19.165C46.9834 20.0979 47.5167 20.8308 48.1985 21.3637C48.847 21.8841 49.653 22.1658 50.4828 22.162C51.8506 22.162 52.9214 21.603 53.6953 20.485C54.4692 19.367 54.8565 17.9002 54.8572 16.0844C54.8572 14.5539 54.6315 13.3316 54.1802 12.4174C53.7289 11.5033 53.1602 10.8681 52.4743 10.5119C51.8044 10.1582 51.0588 9.97409 50.3021 9.97556C48.9101 9.97556 47.8483 10.522 47.1166 11.615C46.385 12.7079 46.0192 14.1977 46.0192 16.0844Z" fill="#212529"/>
<path d="M58.4648 8.63565H60.9796V10.6299C61.3783 9.95503 61.9968 9.35987 62.835 8.84436C63.6733 8.32885 64.6984 8.07214 65.9105 8.07423C67.4333 8.07423 68.7032 8.42834 69.72 9.13655C70.7373 9.84761 71.517 10.8512 71.9565 12.0157C72.4341 13.2283 72.6729 14.6061 72.6729 16.1491C72.6604 17.2832 72.492 18.4101 72.1725 19.4978C71.8388 20.6805 71.1736 21.7272 70.1769 22.6378C69.1801 23.5485 67.7777 24.0042 65.9697 24.0049C65.1254 24.0131 64.2894 23.8372 63.5193 23.4894C62.7696 23.1464 62.174 22.7544 61.7324 22.3133C61.2908 21.8722 61.0696 21.53 61.0689 21.2865V28.8991H58.4648V8.63565ZM61.0699 16.0844C61.0575 17.1398 61.2544 18.187 61.6493 19.165C62.0356 20.0979 62.5689 20.8308 63.2493 21.3637C63.8977 21.8841 64.7038 22.1658 65.5336 22.162C66.9 22.162 67.9705 21.603 68.745 20.485C69.5196 19.367 69.9069 17.9002 69.9069 16.0844C69.9069 14.5539 69.6812 13.3316 69.2299 12.4174C68.7786 11.5033 68.2103 10.8681 67.525 10.5119C66.8555 10.1583 66.1103 9.97421 65.354 9.97556C63.9619 9.97556 62.8998 10.522 62.1674 11.615C61.4351 12.7079 61.0692 14.1977 61.0699 16.0844Z" fill="#212529"/>
<path d="M73.5137 16.0875C73.5137 14.292 73.7906 12.7962 74.3443 11.6003C74.8981 10.4044 75.7159 9.51778 76.7978 8.94036C77.886 8.36293 79.2326 8.07422 80.8378 8.07422C83.2605 8.07422 85.081 8.73269 86.2993 10.0496C87.5176 11.3666 88.126 13.3799 88.1246 16.0896C88.1246 17.4295 87.9606 18.5979 87.6325 19.5949C87.3044 20.5918 86.8271 21.4152 86.2007 22.0649C85.5609 22.7252 84.7761 23.2256 83.9091 23.5259C82.9205 23.8627 81.8816 24.0264 80.8378 24.0101C79.7907 24.0263 78.7483 23.864 77.7551 23.5301C76.883 23.2318 76.093 22.7313 75.4491 22.0691C74.7856 21.3606 74.2923 20.5089 74.0069 19.5792C73.6781 18.5712 73.5137 17.4073 73.5137 16.0875ZM76.18 16.0875C76.18 18.1204 76.5863 19.6418 77.399 20.652C78.2116 21.6621 79.3579 22.1655 80.8378 22.162C81.7827 22.162 82.5981 21.9185 83.2841 21.4315C83.97 20.9445 84.494 20.2447 84.8561 19.3319C85.2174 18.4171 85.3981 17.3332 85.3981 16.0802C85.3981 14.8273 85.2011 13.7392 84.8073 12.8161C84.4127 11.8936 83.8697 11.1885 83.1782 10.7008C82.4938 10.2162 81.6749 9.96064 80.8378 9.97033C79.9914 9.95705 79.1586 10.1865 78.4373 10.6319C77.7306 11.073 77.1768 11.7513 76.776 12.6668C76.3752 13.5824 76.1766 14.7216 76.18 16.0844V16.0875Z" fill="#212529"/>
<path d="M97.3721 8.38672V10.5688H96.4106C95.6547 10.5728 94.9079 10.7348 94.2177 11.0446C93.493 11.3611 92.87 11.9775 92.3488 12.8938C91.8276 13.81 91.5676 15.0824 91.569 16.711V23.5086H88.9629V8.63508H91.4403L91.379 11.5048H91.5005C92.5623 9.42608 94.3126 8.38672 96.7512 8.38672H97.3721Z" fill="#212529"/>
<path d="M98.2109 8.63565H100.819V4.14844H103.455V8.63565H106.621V10.4744H103.452V19.9518C103.447 19.9935 103.437 20.0345 103.422 20.0739C103.406 20.1153 103.396 20.1589 103.392 20.2033C103.392 20.7863 103.476 21.2385 103.645 21.5599C103.814 21.8813 104.195 22.0413 104.788 22.0399H104.972C105.529 21.9603 106.079 21.8354 106.616 21.6663V23.5081C105.515 23.7579 104.604 23.8824 103.882 23.8817H103.632C102.859 23.8817 102.269 23.7562 101.86 23.505C101.453 23.2567 101.156 22.8618 101.029 22.401C100.886 21.914 100.814 21.2631 100.813 20.4485V10.4744H98.2109V8.63565Z" fill="#FFC300"/>
<path d="M107.391 16.0875C107.391 14.292 107.668 12.7962 108.221 11.6003C108.775 10.4044 109.594 9.51778 110.679 8.94036C111.764 8.36293 113.109 8.07422 114.715 8.07422C117.137 8.07422 118.958 8.73269 120.175 10.0496C121.393 11.3666 122.001 13.3792 122.001 16.0875C122.001 17.4274 121.836 18.5959 121.508 19.5928C121.18 20.5897 120.703 21.4131 120.078 22.0628C119.438 22.7229 118.653 23.2232 117.786 23.5238C116.797 23.8606 115.759 24.0244 114.715 24.008C113.668 24.0242 112.625 23.8619 111.632 23.528C110.76 23.2297 109.97 22.7292 109.326 22.067C108.662 21.3586 108.169 20.5069 107.883 19.5771C107.555 18.5705 107.391 17.4073 107.391 16.0875ZM110.057 16.0875C110.057 18.1204 110.463 19.6418 111.276 20.652C112.089 21.6621 113.235 22.1665 114.715 22.1651C115.659 22.1651 116.474 21.9216 117.161 21.4346C117.848 20.9476 118.372 20.2478 118.733 19.335C119.094 18.4202 119.274 17.3363 119.274 16.0834C119.274 14.8304 119.077 13.7424 118.683 12.8192C118.29 11.8967 117.747 11.1916 117.055 10.7039C116.371 10.2196 115.552 9.96399 114.715 9.97346C113.868 9.96006 113.036 10.1896 112.314 10.6351C111.607 11.0761 111.054 11.7544 110.653 12.67C110.252 13.5855 110.055 14.7236 110.06 16.0844L110.057 16.0875Z" fill="#FFC300"/>
</g>
<defs>
<clipPath id="clip0_2_14">
<rect width="122" height="33" fill="white"/>
</clipPath>
</defs>
</svg>
